<svg xmlns="http://www.w3.org/2000/svg" viewBox="0 0 128 96" role="img" aria-labelledby="title">
  <title id="title">Wisteria Software mark</title>
  <defs>
    <linearGradient id="wisteriaGradient" x1="12" y1="12" x2="112" y2="88" gradientUnits="userSpaceOnUse">
      <stop offset="0" stop-color="#6d5dfc"/>
      <stop offset="1" stop-color="#8b5cf6"/>
    </linearGradient>
    <linearGradient id="wisteriaAccent" x1="23" y1="59" x2="105" y2="35" gradientUnits="userSpaceOnUse">
      <stop offset="0" stop-color="#ffffff" stop-opacity=".98"/>
      <stop offset=".5" stop-color="#e9ddff" stop-opacity=".98"/>
      <stop offset="1" stop-color="#ffffff" stop-opacity=".98"/>
    </linearGradient>
  </defs>
  <g fill="url(#wisteriaGradient)">
    <rect x="8" y="18" width="9" height="9" rx="2"/>
    <rect x="27" y="6" width="16" height="16" rx="4"/>
    <rect x="55" y="19" width="10" height="10" rx="3"/>
    <rect x="18" y="36" width="14" height="14" rx="3"/>
    <rect x="39" y="31" width="18" height="18" rx="4"/>
    <rect x="68" y="42" width="16" height="16" rx="4"/>
    <rect x="36" y="62" width="12" height="12" rx="3"/>
    <rect x="61" y="70" width="8" height="8" rx="2"/>
    <path d="M29.5 51c3.5 0 7 0 10.4.1 2.2 0 4.2 1.2 5.4 3l17.6 28.4c1.5 2.5 5.1 2.5 6.7.1l25.5-38.7c1.7-2.6 5.6-1.9 6.4 1.1l5.5 21.5c.7 2.8 4.2 3.8 6.3 1.8l12.4-11.7v16.8l-18.8 17.2c-5.2 4.8-13.7 2.2-15.4-4.7l-4-16.1-18.6 28.5c-4.1 6.3-13.4 6.2-17.3-.2L26.1 55.5c-1.3-2.1.2-4.5 3.4-4.5Z"/>
    <path d="M88 55.4c4.4-8.9 10.5-18.5 18.3-28.8 7.3-9.7 14.2-15.1 20.6-16.3 4.9-.9 9.2.5 12.8 4.1 3.6 3.6 5.1 7.9 4.4 12.8-.8 5.8-4.7 10.1-11.7 12.9-3 1.2-6.2 1.8-9.5 1.9-5.9 7.7-10.8 16.3-14.7 25.7l-13.2 31.8c-1.3 3.2-5.8 3.1-7-.1l-5.5-15c-1.4-3.8 1.5-7.8 5.5-7.8 1.7 0 3.2.7 4.4 1.9l2.2 2.3 8.7-21.1c4.2-10.1 9.6-19.5 16.1-28.2 2.7-3.6 5.6-6.3 8.5-8.2 2.5-1.6 4.7-1.7 6.5-.4 1.8 1.3 2.4 3.3 1.9 6-.5 2.6-2.2 4.3-5.1 5-3.3.9-7.3.5-12-1.1-6.7 8.9-11.9 17.3-15.6 25.4l-10.6 23c-1.4 3.1-5.8 2.8-6.8-.4l-3.8-11.9c-.8-2.6.7-5.3 3.4-5.8 2.1-.4 4.2.6 5.1 2.5l1.1 2.2Z"/>
  </g>
  <path d="M38 84c21-2 38.3-17.9 54-33.8 9.5-9.6 18.7-18 29.2-22.1" fill="none" stroke="url(#wisteriaAccent)" stroke-width="7" stroke-linecap="round"/>
</svg>
